<?xml version="1.0" encoding="utf-8"?>
<!-- Generator: Adobe Illustrator 24.3.0, SVG Export Plug-In . SVG Version: 6.00 Build 0)  -->
<svg version="1.1" id="Capa_1" xmlns="http://www.w3.org/2000/svg" xmlns:xlink="http://www.w3.org/1999/xlink" x="0px" y="0px"
	 viewBox="0 0 459 884" style="enable-background:new 0 0 459 884;" xml:space="preserve">
<style type="text/css">
	.st0{opacity:0.24;fill:none;stroke:url(#Oval_1_);enable-background:new    ;}
	.st1{fill-rule:evenodd;clip-rule:evenodd;fill:#1E7DC0;}
</style>
<g id="Final">
	<g id="Subscription" transform="translate(-1141.000000, -55.000000)">
		<g id="Bg" transform="translate(-499.000000, 0.000000)">
			<g id="BG-Shapes_x2F_Green-shape-1" transform="translate(0.000000, 54.000000)">
				<g transform="translate(1639.000000, 0.000000)">
					<g id="shape" transform="translate(1.980851, 0.000000)">
						
							<linearGradient id="Oval_1_" gradientUnits="userSpaceOnUse" x1="-70.324" y1="743.1265" x2="-70.4735" y2="742.2169" gradientTransform="matrix(870.5745 0 0 -879 61724.6172 653244.5)">
							<stop  offset="0" style="stop-color:#12C48B"/>
							<stop  offset="1" style="stop-color:#FFFFFF"/>
						</linearGradient>
						<ellipse id="Oval" class="st0" cx="435.8" cy="445" rx="435.3" ry="439.5"/>
						<path id="Combined-Shape" class="st1" d="M493.2,880C252.6,880,57.4,683,57.4,440S252.6,0,493.2,0S929,197,929,440
							S733.9,880,493.2,880z M493.2,563c67.3,0,121.8-55.1,121.8-123s-54.5-123-121.8-123s-121.8,55.1-121.8,123S426,563,493.2,563z
							"/>
					</g>
				</g>
			</g>
		</g>
	</g>
</g>
</svg>
