<?xml version="1.0" encoding="utf-8"?>
<!-- Generator: Adobe Illustrator 24.3.0, SVG Export Plug-In . SVG Version: 6.00 Build 0)  -->
<svg version="1.1" id="Capa_1" xmlns="http://www.w3.org/2000/svg" xmlns:xlink="http://www.w3.org/1999/xlink" x="0px" y="0px"
	 viewBox="0 0 459 884" style="enable-background:new 0 0 459 884;" xml:space="preserve">
<style type="text/css">
	.st0{fill:#37B0E6;}
</style>
<g>
	<g>
		<g>
			<path class="st0" d="M274.1,536.9V351.6c0-28.6,22.6-51.2,51.2-51.2h16.6c28.6,0,51.2,22.6,51.2,51.2v182.3
				c0,60.2,30.1,88.9,76.8,88.9s76.8-27.1,76.8-85.9V149.8c0-28.6,22.6-51.2,51.2-51.2h16.6c28.6,0,51.2,22.6,51.2,51.2v385.6
				c0,135.6-76.8,194.3-197.3,194.3S274.1,667.9,274.1,536.9z"/>
		</g>
		<g>
			<path class="st0" d="M0,692V506.8c0-28.6,22.6-51.2,51.2-51.2h16.6c28.6,0,51.2,22.6,51.2,51.2v183.8c0,60.2,30.1,88.9,76.8,88.9
				s76.8-27.1,76.8-85.9V303.4c0-28.6,22.6-51.2,51.2-51.2h16.6c28.6,0,51.2,22.6,51.2,51.2V689c0,135.6-76.8,194.3-197.3,194.3
				S0,823.1,0,692z"/>
		</g>
		<g>
			<path class="st0" d="M604,0.7c22.6,25.6,45.2,49.7,67.8,73.8c15.1,16.6,30.1,33.1,45.2,49.7c7.5,9,9,18.1,3,25.6
				c-6,7.5-15.1,9-25.6,3c-27.1-15.1-55.7-30.1-82.8-45.2c-7.5-4.5-12-3-18.1,0c-25.6,15.1-52.7,28.6-79.8,43.7
				c-12.1,6-22.6,3-27.1-7.5c-1.5-4.5-1.5-13.6,1.5-18.1C527.2,85,564.8,42.8,604,0.7z"/>
		</g>
	</g>
</g>
</svg>
