<?xml version="1.0" encoding="utf-8"?>
<!-- Generator: Adobe Illustrator 24.3.0, SVG Export Plug-In . SVG Version: 6.00 Build 0)  -->
<svg version="1.1" id="Capa_1" xmlns="http://www.w3.org/2000/svg" xmlns:xlink="http://www.w3.org/1999/xlink" x="0px" y="0px"
	 viewBox="0 0 156 40" style="enable-background:new 0 0 156 40;" xml:space="preserve">
<style type="text/css">
	.st0{fill-rule:evenodd;clip-rule:evenodd;fill:#1E7DC0;}
	.st1{fill:none;}
	.st2{fill:#1E7DC0;}
</style>
<g>
	<path class="st0" d="M59.5,23.2c0,1.2-0.4,2.2-1.1,2.9s-1.8,1.1-3,1.1c-1.4,0-2.4-0.5-3.3-1.4s-1.2-2.2-1.2-3.8
		c0-1.6,0.4-2.8,1.2-3.7s1.9-1.4,3.2-1.4c1.1,0,2,0.3,2.8,0.9c0.7,0.6,1.2,1.3,1.4,2.3h-1.3c-0.2-0.7-0.6-1.2-1-1.5S56.1,18,55.3,18
		c-1,0-1.8,0.4-2.3,1.1s-0.9,1.7-0.9,2.9c0,1.2,0.3,2.2,0.9,2.9s1.4,1.1,2.3,1.1c0.9,0,1.6-0.3,2.1-0.8s0.8-1.2,0.8-2v-0.2h-2.8V22
		h4V23.2z M66.7,16.9c1.4,0,2.5,0.5,3.3,1.4s1.2,2.2,1.2,3.8c0,1.6-0.4,2.8-1.2,3.8s-1.9,1.4-3.3,1.4c-1.4,0-2.5-0.5-3.3-1.4
		s-1.2-2.2-1.2-3.8c0-1.6,0.4-2.8,1.2-3.8C64.2,17.4,65.3,16.9,66.7,16.9z M66.7,18c-1,0-1.8,0.4-2.4,1.1c-0.6,0.7-0.9,1.7-0.9,2.9
		c0,1.2,0.3,2.2,0.9,2.9s1.4,1.1,2.4,1.1c1,0,1.8-0.4,2.4-1.1s0.9-1.7,0.9-2.9c0-1.2-0.3-2.2-0.9-2.9S67.7,18,66.7,18z M78.3,16.9
		c1.4,0,2.5,0.5,3.3,1.4s1.2,2.2,1.2,3.8c0,1.6-0.4,2.8-1.2,3.8s-1.9,1.4-3.3,1.4c-1.4,0-2.5-0.5-3.3-1.4s-1.2-2.2-1.2-3.8
		c0-1.6,0.4-2.8,1.2-3.8S77,16.9,78.3,16.9z M78.3,18c-1,0-1.8,0.4-2.4,1.1s-0.9,1.7-0.9,2.9c0,1.2,0.3,2.2,0.9,2.9s1.4,1.1,2.4,1.1
		c1,0,1.8-0.4,2.4-1.1s0.9-1.7,0.9-2.9c0-1.2-0.3-2.2-0.9-2.9S79.4,18,78.3,18z M94.1,23.2c0,1.2-0.4,2.2-1.1,2.9
		c-0.8,0.7-1.8,1.1-3,1.1c-1.4,0-2.4-0.5-3.3-1.4s-1.2-2.2-1.2-3.8c0-1.6,0.4-2.8,1.2-3.7s1.9-1.4,3.2-1.4c1.1,0,2,0.3,2.8,0.9
		c0.7,0.6,1.2,1.3,1.4,2.3h-1.3c-0.2-0.7-0.6-1.2-1-1.5S90.7,18,89.9,18c-1,0-1.8,0.4-2.3,1.1s-0.9,1.7-0.9,2.9
		c0,1.2,0.3,2.2,0.9,2.9s1.4,1.1,2.3,1.1c0.9,0,1.6-0.3,2.1-0.8s0.8-1.2,0.8-2v-0.2h-2.8V22h4V23.2z M103.1,25.9V27h-6v-9.9h1.2v8.8
		H103.1z M112.1,25.9V27h-6.1v-9.9h6.1v1.1h-4.9v3.2h4.6v1.1h-4.6v3.4H112.1z M119.9,17.1h3.7c0.9,0,1.7,0.3,2.3,0.9
		s0.9,1.4,0.9,2.3c0,0.9-0.3,1.7-0.9,2.3s-1.4,0.9-2.3,0.9h-2.5V27h-1.2V17.1z M121.2,18.2v4.2h2.2c0.7,0,1.2-0.2,1.6-0.5
		c0.4-0.4,0.6-0.9,0.6-1.5c0-0.7-0.2-1.2-0.6-1.6c-0.4-0.4-0.9-0.5-1.6-0.5H121.2z M135.7,25.9V27h-6v-9.9h1.2v8.8H135.7z M144.9,27
		l-0.2-0.4c-0.1-0.3-0.2-0.6-0.3-1s-0.2-0.7-0.3-1l-0.2-0.4H140l-1,2.8h-1.3l3.6-9.9h1.2l3.6,9.9H144.9z M141.9,18.7l-0.2,0.4
		c-0.1,0.3-0.2,0.7-0.4,1.1l-0.5,1.3c-0.2,0.4-0.3,0.8-0.4,1.1l-0.2,0.4h3.2l-1.5-4.4H141.9z M151.7,27c0,0-0.1,0-0.2,0
		s-0.3,0-0.4,0s-0.3,0-0.4,0s-0.2,0-0.2,0v-4.2l-3.5-5.6h1.4l2.7,4.4h0.1l2.7-4.4h1.4l-3.5,5.6V27z"/>
	<g>
		<path class="st1" d="M0,0h40v40H0V0z"/>
		<g transform="translate(6.5 2.75)">
			<path class="st2" d="M1.9,22.5c-1,0-1.9-0.8-1.9-1.9v-8.2c0-1,0.8-1.9,1.9-1.9s1.9,0.8,1.9,1.9v8.2C3.8,21.7,2.9,22.5,1.9,22.5z"
				/>
			<path class="st2" d="M25.1,22.5c-1,0-1.9-0.8-1.9-1.9v-8.2c0-1,0.8-1.9,1.9-1.9s1.9,0.8,1.9,1.9v8.2C27,21.7,26.2,22.5,25.1,22.5
				z"/>
			<path class="st2" d="M4.5,10.5v15.8c0,0.8,0.7,1.5,1.5,1.5h1.5v4.9c0,1,0.8,1.9,1.9,1.9s1.9-0.8,1.9-1.9v-4.9h4.5v4.9
				c0,1,0.8,1.9,1.9,1.9s1.9-0.8,1.9-1.9v-4.9H21c0.8,0,1.5-0.7,1.5-1.5V10.5H4.5z"/>
			<path class="st2" d="M17.9,2.7l1.5-2c0.1-0.2,0.1-0.4-0.1-0.5C19.2,0,19,0,18.8,0.2l-1.6,2.1c-1.1-0.5-2.4-0.8-3.7-0.8
				s-2.6,0.3-3.7,0.8L8.2,0.2C8,0,7.8,0,7.6,0.1C7.5,0.3,7.4,0.5,7.6,0.7l1.5,2c-2.5,1.4-4.3,4-4.6,7.1h17.9
				C22.2,6.7,20.4,4.1,17.9,2.7z M9.4,6.8c-0.6,0-1.1-0.5-1.1-1.1s0.5-1.1,1.1-1.1s1.1,0.5,1.1,1.1S10,6.8,9.4,6.8z M17.6,6.8
				c-0.6,0-1.1-0.5-1.1-1.1s0.5-1.1,1.1-1.1s1.1,0.5,1.1,1.1S18.2,6.8,17.6,6.8z"/>
		</g>
	</g>
</g>
</svg>
