<?xml version="1.0" encoding="utf-8"?>
<!-- Generator: Adobe Illustrator 24.3.0, SVG Export Plug-In . SVG Version: 6.00 Build 0)  -->
<svg version="1.1" id="Capa_1" xmlns="http://www.w3.org/2000/svg" xmlns:xlink="http://www.w3.org/1999/xlink" x="0px" y="0px"
	 viewBox="0 0 24 24" style="enable-background:new 0 0 24 24;" xml:space="preserve">
<style type="text/css">
	.st0{fill:none;}
</style>
<g id="bounding_box">
	<rect class="st0" width="24" height="24"/>
</g>
<g>
	<path d="M11.6,7.4c0,0.3,0,0.7,0,1c0.2,0,0.5,0,0.7,0c0-0.3,0-0.7,0-1c0.4,0,0.7,0,1.1,0c0,0.4,0,0.7,0,1.1
		c0.7,0.2,1.3,0.5,1.4,1.3c0.1,0.4,0,0.7-0.3,1c-0.2,0.3-0.5,0.5-0.8,0.6c0.3,0.1,0.6,0.2,0.8,0.4c0.7,0.5,0.7,1.6,0.1,2.2
		c-0.3,0.3-0.7,0.5-1.1,0.6c-0.1,0-0.1,0.1-0.1,0.2c0,0.3,0,0.6,0,1c-0.4,0-0.7,0-1.1,0c0-0.3,0-0.7,0-1c-0.2,0-0.5,0-0.7,0
		c0,0.3,0,0.7,0,1c-0.4,0-0.7,0-1.1,0c0-0.3,0-0.7,0-1c-0.6,0-1.1,0-1.6,0c0-0.3,0-0.6,0-0.9c0.1,0,0.3,0,0.4,0
		c0.2,0,0.3-0.1,0.3-0.3c0-1.3,0-2.6,0-4c0-0.2-0.1-0.3-0.3-0.3c-0.1,0-0.3,0-0.4,0c0-0.3,0-0.6,0-0.9c0.5,0,1.1,0,1.6,0
		c0-0.4,0-0.7,0-1C10.9,7.4,11.3,7.4,11.6,7.4z M11.3,12c0,0.6,0,1.1,0,1.6c0,0.2,0.1,0.2,0.2,0.2c0.4,0,0.8,0,1.2-0.1
		c0.4-0.1,0.7-0.4,0.7-0.9c0-0.5-0.2-0.8-0.7-0.8C12.2,12,11.8,12,11.3,12z M11.3,11.1c0.5,0,0.9,0,1.4-0.1c0.4,0,0.6-0.3,0.7-0.7
		c0-0.4-0.2-0.7-0.5-0.7c-0.5-0.1-1-0.1-1.5-0.1C11.3,10,11.3,10.5,11.3,11.1z"/>
	<path d="M19,11.8c-0.5,0.5-0.9,0.9-1.4,1.3c-0.1,0.1-0.2,0.1-0.3,0.2c-0.2,0.1-0.3,0-0.4-0.1c-0.1-0.1-0.1-0.3,0-0.4
		c0-0.1,0.1-0.1,0.1-0.2c0.7-0.7,1.3-1.3,2-2c0.3-0.3,0.5-0.3,0.8,0c0.7,0.7,1.3,1.3,2,2c0.2,0.2,0.2,0.4,0.1,0.6
		c-0.2,0.2-0.4,0.2-0.6,0c-0.3-0.3-0.6-0.6-1-0.9c-0.1-0.1-0.3-0.3-0.4-0.4c0,0.3-0.1,0.6-0.1,0.9c-0.1,0.8-0.3,1.6-0.7,2.4
		c-0.9,1.8-2.2,3.1-4.1,3.9c-2.8,1.1-5.4,0.8-7.8-1c-0.7-0.5-1.3-1.2-1.8-1.9c-0.2-0.2-0.2-0.5,0.1-0.7c0.2-0.2,0.4-0.1,0.6,0.2
		c0.3,0.4,0.6,0.8,1,1.2c1,1,2.3,1.7,3.8,1.9c1.9,0.3,3.7-0.1,5.3-1.3c1.6-1.2,2.5-2.8,2.8-4.8C19,12.3,19,12.1,19,11.8z"/>
	<path d="M4.1,11.6c0-0.8,0.1-1.5,0.4-2.3c0.4-1.2,1-2.3,2-3.2C7.5,5,8.8,4.3,10.2,4c1-0.2,2-0.3,3-0.1C15,4.2,16.5,5,17.7,6.3
		c0.3,0.3,0.5,0.7,0.8,1c0.2,0.2,0.1,0.5-0.1,0.6c-0.2,0.1-0.4,0.1-0.6-0.2c-0.3-0.5-0.7-1-1.2-1.4c-1.1-0.9-2.3-1.5-3.7-1.7
		c-1.5-0.2-2.9,0-4.2,0.7C8,5.8,7.4,6.3,6.8,6.9C6,7.8,5.4,8.9,5.2,10c-0.1,0.5-0.2,1-0.2,1.5c0,0,0,0,0.1,0
		c0.1-0.1,0.1-0.1,0.2-0.2C5.6,11,6,10.6,6.4,10.2c0.3-0.3,0.7-0.1,0.7,0.2c0,0.2-0.1,0.3-0.2,0.5c-0.5,0.5-1.1,1-1.6,1.5
		c-0.2,0.1-0.3,0.3-0.5,0.4c-0.3,0.3-0.5,0.2-0.8,0C3.8,12.4,3.4,12,3,11.6c-0.3-0.3-0.6-0.6-0.8-0.9c-0.2-0.2-0.2-0.5,0-0.6
		c0.2-0.2,0.4-0.2,0.6,0.1C3.2,10.6,3.6,11.1,4.1,11.6z"/>
</g>
</svg>
