<?xml version="1.0" encoding="utf-8"?>
<!-- Generator: Adobe Illustrator 24.3.0, SVG Export Plug-In . SVG Version: 6.00 Build 0)  -->
<svg version="1.1" id="Capa_1" xmlns="http://www.w3.org/2000/svg" xmlns:xlink="http://www.w3.org/1999/xlink" x="0px" y="0px"
	 viewBox="0 0 24 24" style="enable-background:new 0 0 24 24;" xml:space="preserve">
<style type="text/css">
	.st0{display:none;fill:none;}
	.st1{fill:#2B2B2B;}
</style>
<g id="bounding_box">
	<rect class="st0" width="24" height="24"/>
</g>
<g>
	<path class="st1" d="M12,22.5C6.5,22.6,2,18,2,12.5c0-5.5,4.5-10,10-10c5.5,0,10,4.5,10,10C22,18,17.5,22.6,12,22.5z M12,3.7
		c-4.9,0.1-8.8,3.9-8.8,8.8c0,4.9,3.9,8.8,8.8,8.8c4.9,0,8.8-3.9,8.8-8.8C20.8,7.6,16.9,3.8,12,3.7z"/>
	<path class="st1" d="M14.6,12.1c0.1,0,0.1,0.1,0.2,0.1c1,0.4,1.3,1.3,1.2,2.3c-0.1,1.3-1,1.6-2.1,1.8c-0.2,0-0.3,0.1-0.5,0.1
		c-0.5,0-0.5,0-0.5,0.5c0,0.3,0,0.6,0,1c0,0.2-0.1,0.3-0.3,0.3c-0.8,0-0.7,0.1-0.7-0.7c0-0.3,0-0.5,0-0.8c0-0.1-0.1-0.2-0.2-0.2
		c-0.2,0-0.4,0-0.7,0c0,0.5,0,0.9,0,1.4c0,0.2,0,0.3-0.3,0.3c-0.7,0-0.7,0-0.7-0.7c0-0.2,0-0.5,0-0.7c0-0.3-0.1-0.4-0.3-0.4
		c-0.6,0-1.2,0-1.8,0c0.1-0.4,0.1-0.7,0.2-1c0-0.1,0.1-0.1,0.2-0.1c0.1,0,0.3,0,0.5,0c0.3,0,0.6-0.3,0.6-0.7c0-1.4,0-2.7,0-4.1
		c0-0.4-0.3-0.7-0.7-0.7C8,9.8,8,9.8,8,9.1c0-0.3,0.1-0.4,0.4-0.4c0.5,0,1,0,1.4,0c0.2,0,0.3-0.1,0.3-0.3c0-0.4,0-0.8,0-1.2
		C10.1,7,10.2,7,10.4,7c0.7,0,0.7,0,0.7,0.7c0,0.3,0,0.5,0,0.8c0,0.2,0.1,0.3,0.3,0.3c0.6,0,0.6,0,0.6-0.6c0-0.3,0-0.6,0-0.9
		C12,7,12.1,7,12.3,7C13.1,7,13,6.8,13,7.7c0,0.3,0,0.5,0,0.8c0,0.3,0.1,0.3,0.4,0.4c0.3,0.1,0.7,0.1,1,0.2c0.6,0.2,1,0.6,1.1,1.2
		c0.1,0.7,0,1.4-0.6,1.8C14.7,12,14.7,12.1,14.6,12.1z M11.1,14c0,0.3,0,0.6,0,0.9c0,0.1,0.1,0.2,0.2,0.2c0.7,0,1.4,0,2.1-0.2
		c0.3-0.1,0.5-0.3,0.5-0.6c0.2-0.6-0.2-1.2-0.9-1.3c-0.6-0.1-1.2-0.1-1.8-0.1c-0.2,0-0.2,0.1-0.2,0.2C11.1,13.4,11.1,13.7,11.1,14z
		 M11.1,11.9c0.6,0,1.2,0,1.8-0.1c0.5-0.2,0.7-0.4,0.7-0.9c0-0.5-0.2-0.8-0.7-0.9c-0.5-0.1-1.1-0.1-1.6-0.2c-0.1,0-0.2,0.1-0.2,0.1
		C11.1,10.6,11.1,11.3,11.1,11.9z"/>
</g>
</svg>
