<?xml version="1.0" encoding="utf-8"?>
<!-- Generator: Adobe Illustrator 24.3.0, SVG Export Plug-In . SVG Version: 6.00 Build 0)  -->
<svg version="1.1" id="Capa_1" xmlns="http://www.w3.org/2000/svg" xmlns:xlink="http://www.w3.org/1999/xlink" x="0px" y="0px"
	 viewBox="0 0 24 24" style="enable-background:new 0 0 24 24;" xml:space="preserve">
<style type="text/css">
	.st0{fill:none;}
	.st1{fill:#FFFFFF;}
</style>
<g id="bounding_area">
	<rect class="st0" width="24" height="24"/>
</g>
<g id="design">
	<g>
		<path class="st1" d="M14.8,8.1H9.2c-0.4,0-0.6-0.3-0.6-0.6c0-0.4,0.3-0.6,0.6-0.6h5.6c0.4,0,0.6,0.3,0.6,0.6
			C15.5,7.8,15.2,8.1,14.8,8.1z"/>
		<path class="st1" d="M17.4,3.4H8.3c-1.8,0-3.2,1.5-3.2,3.2v10.9h0c0,0,0,0.1,0,0.1c0,1.7,1.4,3,3,3h10.2c0.4,0,0.6-0.3,0.6-0.6
			V4.9C18.9,4,18.2,3.4,17.4,3.4z M6.4,6.6c0-1.1,0.9-1.9,1.9-1.9h9.1c0.1,0,0.2,0.1,0.2,0.2v9.7H8.1c-0.6,0-1.2,0.2-1.7,0.6V6.6z
			 M17.6,19.3H8.1c-1,0-1.7-0.8-1.7-1.7c0-1,0.8-1.7,1.7-1.7h9.5V19.3z"/>
	</g>
</g>
</svg>
