<?xml version="1.0" encoding="utf-8"?>
<!-- Generator: Adobe Illustrator 24.3.0, SVG Export Plug-In . SVG Version: 6.00 Build 0)  -->
<svg version="1.1" id="Capa_1" xmlns="http://www.w3.org/2000/svg" xmlns:xlink="http://www.w3.org/1999/xlink" x="0px" y="0px"
	 viewBox="0 0 24 24" style="enable-background:new 0 0 24 24;" xml:space="preserve">
<style type="text/css">
	.st0{fill:none;}
	.st1{fill:#2B2B2B;}
</style>
<g id="bounding_box">
	<rect class="st0" width="24" height="24"/>
</g>
<g id="design">
	<g>
		<path class="st1" d="M12,2C6.5,2,2,6.5,2,12s4.5,10,10,10s10-4.5,10-10S17.5,2,12,2z M12,20.5c-4.7,0-8.5-3.8-8.5-8.5
			S7.3,3.5,12,3.5s8.5,3.8,8.5,8.5S16.7,20.5,12,20.5z"/>
		<path class="st1" d="M14.9,14.4c0,1.3-0.9,2.3-2.1,2.6v1.3c0,0.4-0.3,0.8-0.8,0.8s-0.8-0.3-0.8-0.8v-1.3c-1.3-0.3-2.1-1.3-2.1-2.6
			c0-0.4,0.3-0.8,0.8-0.8c0.4,0,0.7,0.3,0.7,0.8c0,0.8,0.8,1.1,1.4,1.1s1.4-0.3,1.4-1.1c0-0.7-0.3-0.9-2.1-2l-0.3-0.2
			c-0.8-0.5-1.8-1-1.8-2.5c0-1.3,0.9-2.3,2.1-2.6V5.8C11.2,5.3,11.6,5,12,5s0.8,0.3,0.8,0.8v1.3c1.2,0.3,2.1,1.5,2.1,2.8
			c0,0.4-0.3,0.7-0.8,0.7c-0.4,0-0.7-0.3-0.7-0.7c0-0.8-0.6-1.4-1.4-1.4c-0.6,0-1.4,0.3-1.4,1.1c0,0.6,0.3,0.8,1,1.2l0.3,0.2
			C13.9,12.2,14.9,12.8,14.9,14.4z"/>
	</g>
</g>
</svg>
