<?xml version="1.0" encoding="utf-8"?>
<!-- Generator: Adobe Illustrator 24.3.0, SVG Export Plug-In . SVG Version: 6.00 Build 0)  -->
<svg version="1.1" id="Capa_1" xmlns="http://www.w3.org/2000/svg" xmlns:xlink="http://www.w3.org/1999/xlink" x="0px" y="0px"
	 viewBox="0 0 24 24" style="enable-background:new 0 0 24 24;" xml:space="preserve">
<style type="text/css">
	.st0{fill:none;}
	.st1{fill:#2B2B2B;}
	.st2{fill:#2B2B2B;stroke:#2B2B2B;stroke-width:0.75;stroke-miterlimit:10;}
</style>
<g id="bounding_box">
	<rect class="st0" width="24" height="24"/>
</g>
<g id="design">
	<g>
		<path class="st1" d="M12,2C6.5,2,2,6.5,2,12s4.5,10,10,10s10-4.5,10-10S17.5,2,12,2z M12,20.5c-4.7,0-8.5-3.8-8.5-8.5
			S7.3,3.5,12,3.5s8.5,3.8,8.5,8.5S16.7,20.5,12,20.5z"/>
	</g>
</g>
<g>
	<path class="st2" d="M17,14.2c0,0.8,0,1.6,0,2.4c0,0.3-0.2,0.4-0.4,0.3c-1.5-0.5-3.2-0.1-4.3,1.4c-0.2,0.3-0.3,0.3-0.5,0
		c-0.6-0.8-1.5-1.4-2.5-1.5c-0.6-0.1-1.2,0-1.8,0.2C7.1,17,7,16.9,7,16.7c0-1.6,0-3.3,0-4.9c0-0.2,0.1-0.3,0.2-0.3
		c0.5-0.2,1.1-0.2,1.6-0.2c0.1,0,0.2,0,0.3-0.1c1.6-1.7,4.2-1.7,5.8,0c0,0.1,0.1,0.1,0.2,0.1c0.5,0,1.1,0,1.6,0.2
		c0.3,0.1,0.3,0.1,0.3,0.4C17,12.6,17,13.4,17,14.2z M16.5,16.4c0,0,0-0.1,0-0.1c0-1.4,0-2.9,0-4.3c0-0.1,0-0.1-0.1-0.2
		c-0.3,0-0.6-0.1-0.8-0.1c-1.3,0-2.4,0.5-3.2,1.5c-0.1,0.1-0.1,0.2-0.1,0.3c0,1.3,0,2.6,0,3.9c0,0,0,0.1,0,0.2
		C13.5,16.4,14.9,16,16.5,16.4z M11.7,17.6C11.7,17.5,11.8,17.5,11.7,17.6c0-1.4,0-2.8,0-4.1c0-0.1,0-0.1-0.1-0.2
		c-0.7-0.9-1.6-1.4-2.8-1.5c-0.5,0-1,0-1.4,0.1c0,1.5,0,3,0,4.5C9.1,16,10.5,16.4,11.7,17.6z M12,12.8c0.3-0.3,0.7-0.6,1.1-0.9
		c0.4-0.3,0.8-0.4,1.3-0.6c-1.3-1.3-3.5-1.2-4.7,0c0.4,0.2,0.9,0.4,1.3,0.6C11.3,12.2,11.7,12.5,12,12.8z"/>
	<path class="st2" d="M9.9,7.5c0-1.1,0.9-2.1,2.1-2.1c1.1,0,2.1,0.9,2.1,2.1c0,1.1-0.9,2.1-2.1,2.1C10.8,9.6,9.9,8.7,9.9,7.5z
		 M13.6,7.6C13.6,6.7,12.9,6,12,6c-0.9,0-1.6,0.7-1.6,1.6c0,0.9,0.7,1.6,1.6,1.6C12.8,9.2,13.6,8.4,13.6,7.6z"/>
</g>
</svg>
