<?xml version="1.0" encoding="utf-8"?>
<!-- Generator: Adobe Illustrator 24.3.0, SVG Export Plug-In . SVG Version: 6.00 Build 0)  -->
<svg version="1.1" id="Capa_1" xmlns="http://www.w3.org/2000/svg" xmlns:xlink="http://www.w3.org/1999/xlink" x="0px" y="0px"
	 viewBox="0 0 155 155" style="enable-background:new 0 0 155 155;" xml:space="preserve">
<style type="text/css">
	.st0{opacity:0.1165;fill-rule:evenodd;clip-rule:evenodd;fill:#1E7CC0;enable-background:new    ;}
	.st1{opacity:0.2623;fill-rule:evenodd;clip-rule:evenodd;fill:#1E7DC0;enable-background:new    ;}
	.st2{display:none;}
	.st3{display:inline;fill-rule:evenodd;clip-rule:evenodd;}
	.st4{fill-rule:evenodd;clip-rule:evenodd;fill:#37B0E6;}
	.st5{fill:#FFFFFF;}
</style>
<g>
	<circle class="st0" cx="77.5" cy="77.5" r="77.5"/>
	<circle class="st1" cx="77.4" cy="77.4" r="61.3"/>
	<g>
		<g class="st2">
			<circle id="a_2_" class="st3" cx="76.6" cy="77.3" r="45"/>
		</g>
		<g>
			<circle id="a_1_" class="st4" cx="76.6" cy="77.3" r="45"/>
		</g>
	</g>
</g>
<g>
	<g>
		<g>
			<path class="st5" d="M71.7,83.8V71.5c0-1.9,1.5-3.4,3.4-3.4h1.1c1.9,0,3.4,1.5,3.4,3.4v12.1c0,4,2,5.9,5.1,5.9s5.1-1.8,5.1-5.7
				V58.1c0-1.9,1.5-3.4,3.4-3.4h1.1c1.9,0,3.4,1.5,3.4,3.4v25.6c0,9-5.1,12.9-13.1,12.9S71.7,92.5,71.7,83.8z"/>
		</g>
		<g>
			<path class="st5" d="M53.5,94.1V81.8c0-1.9,1.5-3.4,3.4-3.4H58c1.9,0,3.4,1.5,3.4,3.4V94c0,4,2,5.9,5.1,5.9s5.1-1.8,5.1-5.7V68.3
				c0-1.9,1.5-3.4,3.4-3.4h1.1c1.9,0,3.4,1.5,3.4,3.4v25.6c0,9-5.1,12.9-13.1,12.9S53.5,102.8,53.5,94.1z"/>
		</g>
		<g>
			<path class="st5" d="M93.6,48.2c1.5,1.7,3,3.3,4.5,4.9c1,1.1,2,2.2,3,3.3c0.5,0.6,0.6,1.2,0.2,1.7s-1,0.6-1.7,0.2
				c-1.8-1-3.7-2-5.5-3c-0.5-0.3-0.8-0.2-1.2,0c-1.7,1-3.5,1.9-5.3,2.9c-0.8,0.4-1.5,0.2-1.8-0.5c-0.1-0.3-0.1-0.9,0.1-1.2
				C88.5,53.8,91,51,93.6,48.2z"/>
		</g>
	</g>
</g>
</svg>
