<?xml version="1.0" encoding="utf-8"?>
<!-- Generator: Adobe Illustrator 24.3.0, SVG Export Plug-In . SVG Version: 6.00 Build 0)  -->
<svg version="1.1" id="Capa_1" xmlns="http://www.w3.org/2000/svg" xmlns:xlink="http://www.w3.org/1999/xlink" x="0px" y="0px"
	 viewBox="0 0 155 155" style="enable-background:new 0 0 155 155;" xml:space="preserve">
<style type="text/css">
	.st0{opacity:0.1165;fill-rule:evenodd;clip-rule:evenodd;fill:#1E7CC0;enable-background:new    ;}
	.st1{opacity:0.2623;fill-rule:evenodd;clip-rule:evenodd;fill:#1E7DC0;enable-background:new    ;}
	.st2{display:none;}
	.st3{display:inline;fill-rule:evenodd;clip-rule:evenodd;}
	.st4{fill-rule:evenodd;clip-rule:evenodd;fill:#1E7DC0;}
	.st5{fill:#FFFFFF;}
	.st6{fill:#1E7DC0;}
</style>
<g>
	<circle class="st0" cx="77.5" cy="77.5" r="77.5"/>
	<circle class="st1" cx="77.4" cy="77.4" r="61.3"/>
	<g>
		<g class="st2">
			<circle id="a_2_" class="st3" cx="76.6" cy="77.3" r="45"/>
		</g>
		<g>
			<circle id="a_1_" class="st4" cx="76.6" cy="77.3" r="45"/>
		</g>
	</g>
</g>
<g>
	<path class="st5" d="M78.3,78.3c-1.8,3-3.5,5.8-5.2,8.6c-0.9,1.5-1.9,3.1-2.9,4.6c-2.5,3.9-7.1,4.4-9.9,0.7
		c-2.1-2.6-3.7-5.6-5.5-8.5c-2.3-3.7-4.6-7.5-6.8-11.3c-0.9-1.6-1.6-3.2-2.1-5c-0.7-2.4,0.5-4.8,2.9-6.1s5.2-1,6.8,1
		c1.9,2.4,3.5,5,5.1,7.5c1.4,2.2,2.7,4.5,4.1,6.9c0.4-0.6,0.7-1,0.9-1.4c2.2-3.6,4.4-7.3,6.6-10.9c0.4-0.7,0.9-1.3,1.4-1.9
		c2.8-2.9,6.9-2.8,9.3,0.5c1.8,2.5,3.3,5.2,4.9,7.8c2.8,4.7,5.6,9.4,8.4,14.1c1,1.7,1.4,3.4,0.9,5.3c-1.1,3.9-6,5.6-9.2,3
		c-0.9-0.7-1.7-1.7-2.3-2.7c-2.1-3.4-4.2-6.8-6.2-10.3C79.2,79.8,78.8,79.2,78.3,78.3z"/>
	<path class="st5" d="M102.2,60c4,0,7.2,3.2,7.1,7.1s-3.3,7.1-7.1,7c-3.9,0-7.1-3.2-7.1-7.1S98.2,60,102.2,60z M100.1,68.4
		c-0.1,0.2-0.2,0.4-0.3,0.6c0.8,0.8,1.7,1.6,2.4,2.3c0.5-0.4,1-0.8,1.5-1.2c1.3-0.9,1.3-2.7,0-3.5c-0.4-0.3-1-0.3-1.4-0.6
		c-0.3-0.3-0.5-0.7-0.7-1.1c0.5,0,0.9-0.1,1.4,0c0.4,0,0.8,0.2,1.2,0.3c0.1-0.2,0.1-0.3,0.2-0.5c-0.3-0.3-0.6-0.7-1-1
		c-0.4-0.3-0.8-0.6-1.2-0.9c-0.4,0.4-0.9,0.7-1.3,1.1c-1.1,0.8-1.1,2.3-0.1,3.1c0.4,0.3,0.8,0.4,1.2,0.6c0.4,0.3,0.8,0.6,1.1,0.9
		c0.1,0.1-0.3,0.7-0.5,0.7c-0.5,0-0.9-0.3-1.3-0.4C100.8,68.7,100.5,68.6,100.1,68.4z"/>
	<ellipse class="st5" cx="102.2" cy="67.1" rx="7.1" ry="7.1"/>
</g>
<path class="st6" d="M104.6,69.1c0,1.1-0.7,1.9-1.8,2.2v1.1c0,0.3-0.3,0.6-0.6,0.6s-0.6-0.3-0.6-0.6v-1.1c-1.1-0.2-1.8-1.1-1.8-2.2
	c0-0.3,0.3-0.6,0.6-0.6c0.3,0,0.6,0.3,0.6,0.6c0,0.7,0.6,1,1.2,1c0.5,0,1.2-0.3,1.2-1c0-0.6-0.3-0.8-1.8-1.7l-0.3-0.2
	c-0.7-0.4-1.5-0.9-1.5-2.1c0-1.1,0.7-1.9,1.8-2.2v-1.1c0-0.3,0.3-0.6,0.6-0.6s0.6,0.3,0.6,0.6V63c1,0.3,1.8,1.2,1.8,2.3
	c0,0.3-0.3,0.6-0.6,0.6c-0.3,0-0.6-0.3-0.6-0.6c0-0.6-0.5-1.2-1.2-1.2c-0.5,0-1.2,0.3-1.2,1c0,0.5,0.2,0.6,0.9,1l0.2,0.1
	C103.8,67.2,104.6,67.8,104.6,69.1z"/>
</svg>
