<?xml version="1.0" encoding="utf-8"?>
<!-- Generator: Adobe Illustrator 24.3.0, SVG Export Plug-In . SVG Version: 6.00 Build 0)  -->
<svg version="1.1" id="Capa_1" xmlns="http://www.w3.org/2000/svg" xmlns:xlink="http://www.w3.org/1999/xlink" x="0px" y="0px"
	 viewBox="0 0 133 40" style="enable-background:new 0 0 133 40;" xml:space="preserve">
<style type="text/css">
	.st0{fill-rule:evenodd;clip-rule:evenodd;fill:#FFFFFF;}
	.st1{fill:none;}
	.st2{fill:#FFFFFF;}
</style>
<g>
	<path class="st0" d="M57.7,27l-0.2-0.4c-0.1-0.3-0.2-0.6-0.3-1s-0.2-0.7-0.3-1l-0.2-0.4h-3.9l-1,2.8h-1.3l3.6-9.9h1.2L59,27H57.7z
		 M54.7,18.7l-0.2,0.4c-0.1,0.3-0.2,0.7-0.4,1.1l-0.5,1.3c-0.2,0.4-0.3,0.8-0.4,1.1L53,23h3.2l-1.5-4.4h0V18.7z M61.5,17.1h3.7
		c0.9,0,1.7,0.3,2.3,0.9s0.9,1.4,0.9,2.3s-0.3,1.7-0.9,2.3s-1.4,0.9-2.3,0.9h-2.5V27h-1.2C61.5,27,61.5,17.1,61.5,17.1z M62.8,18.2
		v4.2H65c0.7,0,1.2-0.2,1.6-0.5s0.6-0.9,0.6-1.5c0-0.7-0.2-1.2-0.6-1.6s-0.9-0.5-1.6-0.5h-2.2V18.2z M71.3,17.1H75
		c0.9,0,1.7,0.3,2.3,0.9s0.9,1.4,0.9,2.3s-0.3,1.7-0.9,2.3s-1.4,0.9-2.3,0.9h-2.5V27h-1.2V17.1z M72.5,18.2v4.2h2.2
		c0.7,0,1.2-0.2,1.6-0.5s0.6-0.9,0.6-1.5c0-0.7-0.2-1.2-0.6-1.6s-0.9-0.5-1.6-0.5h-2.2V18.2z M85.3,24.4h1.2
		c0.1,0.5,0.3,0.9,0.8,1.2s1,0.5,1.7,0.5s1.2-0.2,1.7-0.5s0.7-0.7,0.7-1.2c0-0.4-0.2-0.8-0.5-1s-0.8-0.5-1.5-0.7l-1.3-0.3
		c-0.9-0.2-1.5-0.6-1.9-1s-0.6-1-0.6-1.7c0-0.8,0.3-1.5,1-2s1.5-0.8,2.5-0.8s1.8,0.3,2.4,0.8s1,1.2,1,2h-1.2
		c-0.1-0.5-0.3-0.9-0.7-1.2S89.7,18,89.1,18c-0.7,0-1.2,0.2-1.6,0.5s-0.6,0.7-0.6,1.2c0,0.4,0.1,0.7,0.4,0.9s0.8,0.4,1.5,0.6l1,0.3
		c1,0.3,1.8,0.6,2.2,1s0.7,1,0.7,1.7c0,0.9-0.3,1.6-1,2.2s-1.6,0.8-2.7,0.8c-1,0-1.9-0.3-2.6-0.8S85.4,25.3,85.3,24.4z M99.4,27
		h-1.2v-8.8H95v-1.1h7.6v1.1h-3.2V27z M109.1,16.9c1.4,0,2.5,0.5,3.3,1.4s1.2,2.2,1.2,3.8c0,1.6-0.4,2.8-1.2,3.8
		c-0.8,0.9-1.9,1.4-3.3,1.4s-2.5-0.5-3.3-1.4s-1.2-2.2-1.2-3.8c0-1.6,0.4-2.8,1.2-3.8C106.6,17.4,107.7,16.9,109.1,16.9z M109.1,18
		c-1,0-1.8,0.4-2.4,1.1s-0.9,1.7-0.9,2.9c0,1.2,0.3,2.2,0.9,2.9s1.4,1.1,2.4,1.1s1.8-0.4,2.4-1.1s0.9-1.7,0.9-2.9
		c0-1.2-0.3-2.2-0.9-2.9S110.1,18,109.1,18z M117.8,18.2V22h2.4c0.6,0,1.1-0.2,1.5-0.5s0.5-0.8,0.5-1.4s-0.2-1.1-0.5-1.4
		s-0.9-0.5-1.5-0.5H117.8z M117.8,23.1V27h-1.2v-9.9h3.8c1,0,1.7,0.3,2.3,0.8s0.9,1.2,0.9,2.1c0,0.7-0.2,1.3-0.5,1.8s-0.8,0.8-1.5,1
		l2.3,4.1h-1.4l-2.1-3.9h-2.6V23.1z M132.7,25.9v0.2v0.4v0.4V27h-6.1v-9.9h6.1v1.1h-4.9v3.2h4.6v1.1h-4.6v3.4
		C127.8,25.9,132.7,25.9,132.7,25.9z"/>
	<g>
		<path class="st1" d="M0,0h40v40H0V0z"/>
		<g transform="translate(5.454545 1.727273)">
			<path class="st2" d="M28.5,25.7c-0.8,1.7-1.2,2.5-2.2,4c-1.4,2.1-3.4,4.8-5.8,4.8c-2.2,0-2.7-1.4-5.7-1.4s-3.6,1.4-5.7,1.4
				c-2.4,0-4.3-2.4-5.7-4.5c-3.9-6-4.3-13-1.9-16.7c1.7-2.6,4.4-4.2,7-4.2s4.2,1.4,6.4,1.4c2.1,0,3.3-1.4,6.3-1.4
				c2.3,0,4.7,1.2,6.4,3.4C21.9,15.5,22.8,23.5,28.5,25.7z"/>
			<path class="st2" d="M19.2,5.4C20.3,4,21.1,2,20.8,0c-1.8,0.1-3.8,1.3-5,2.7c-1.1,1.3-2,3.3-1.7,5.2C16,8,18,6.9,19.2,5.4z"/>
		</g>
	</g>
</g>
</svg>
