<?xml version="1.0" encoding="UTF-8"?>
<svg width="22px" height="22px" viewBox="0 0 22 22" version="1.1" xmlns="http://www.w3.org/2000/svg" xmlns:xlink="http://www.w3.org/1999/xlink">
    <!-- Generator: Sketch 64 (93537) - https://sketch.com -->
    <title>Icons/24/contactless Copy</title>
    <desc>Created with Sketch.</desc>
    <g id="APPX-348---01.04.20" stroke="none" stroke-width="1" fill="none" fill-rule="evenodd" stroke-linecap="square">
        <g id="Productos-y-servicios_Mobile-Copy-29" transform="translate(-22.000000, -9717.000000)" stroke="#172B5F">
            <g id="Group-31" transform="translate(0.000000, 8494.000000)">
                <g id="Icons/24/help_dark" transform="translate(21.000000, 1222.000000)">
                    <g id="headphones-mic" transform="translate(2.000000, 2.000000)">
                        <g id="Group" transform="translate(0.100000, 0.100000)" stroke-width="1.6">
                            <path d="M2.7,14.9256 L2.7,16.2 C2.7,18.1881 4.3119,19.8 6.3,19.8 L9.9,19.8" id="Shape"></path>
                            <path d="M2.7,6.6654 L2.7,6.3 C2.7,2.8206 5.5206,0 9,0 L10.8,0 C14.2794,0 17.1,2.8206 17.1,6.3 L17.1,6.6798" id="Shape"></path>
                            <path d="M5.4,6.3909 C5.1093,6.3315 4.8087,6.3 4.5,6.3 C2.0151,6.3 0,8.3151 0,10.8 C0,13.2849 2.0151,15.3 4.5,15.3 C4.8087,15.3 5.1093,15.2685 5.4,15.2091 L5.4,6.3909 Z" id="Shape"></path>
                            <path d="M14.4,15.2091 C14.6907,15.2685 14.9913,15.3 15.3,15.3 C17.7849,15.3 19.8,13.2849 19.8,10.8 C19.8,8.3151 17.7849,6.3 15.3,6.3 C14.9913,6.3 14.6907,6.3315 14.4,6.3909 L14.4,15.2091 Z" id="Shape"></path>
                        </g>
                    </g>
                </g>
            </g>
        </g>
    </g>
</svg>
