<?xml version="1.0" encoding="utf-8"?>
<!-- Generator: Adobe Illustrator 24.3.0, SVG Export Plug-In . SVG Version: 6.00 Build 0)  -->
<svg version="1.1" id="Capa_1" xmlns="http://www.w3.org/2000/svg" xmlns:xlink="http://www.w3.org/1999/xlink" x="0px" y="0px"
	 viewBox="0 0 24 24" style="enable-background:new 0 0 24 24;" xml:space="preserve">
<style type="text/css">
	.st0{fill:#FFFFFF;}
</style>
<g>
	<path class="st0" d="M11.9,20.6c-1.5,0-3.1,0-4.7,0c-0.8,0-1.3-0.3-1.5-1c-1-3.1-2-6.3-3.1-9.4C2.6,9.8,2.8,9.2,3.1,8.9
		c2.7-2,5.4-4,8.2-5.9c0.6-0.4,1-0.4,1.6,0c2.6,2,5.4,3.9,8.1,5.9c0.3,0.3,0.5,0.8,0.4,1.2c-0.9,3.2-2,6.5-3.1,9.8
		c-0.2,0.7-0.7,0.8-1.3,0.8C15.3,20.6,13.6,20.6,11.9,20.6z M20.1,10.4c-2.6,0.7-5,1.2-7.4,1.8c-0.3,0.1-0.6,0.5-0.8,0.8
		c-1.1,1.7-2.1,3.5-3.2,5.2c-0.2,0.3-0.3,0.6-0.4,0.9c0.3,0.1,0.8,0.3,1.1,0.3c2.3,0.1,4.6,0.1,7,0.1c0.3,0,0.9-0.4,1-0.8
		c0.7-2,1.4-3.8,2-5.8C19.6,12.3,19.7,11.5,20.1,10.4z M11.4,4.2C8.9,6.1,6.6,7.7,4.3,9.4C4,9.5,3.9,10.1,4,10.5
		c0.8,2.5,1.5,4.9,2.3,7.4c0.1,0.3,0.3,0.3,0.5,0.7c1.1-1.7,2.1-3.2,3.1-4.8c0.5-0.8,1.3-1.5,1.4-2.4C11.6,9.1,11.4,6.8,11.4,4.2z
		 M19.2,9.4c0-0.1,0.1-0.3,0.1-0.3C17.2,7.5,15,6,12.8,4.4c0,2.2,0,4.2,0,6.5C15,10.4,17.1,9.9,19.2,9.4z"/>
</g>
</svg>
