<?xml version="1.0" encoding="utf-8"?>
<!-- Generator: Adobe Illustrator 24.3.0, SVG Export Plug-In . SVG Version: 6.00 Build 0)  -->
<svg version="1.1" id="Capa_1" xmlns="http://www.w3.org/2000/svg" xmlns:xlink="http://www.w3.org/1999/xlink" x="0px" y="0px"
	 viewBox="0 0 943.9 335" style="enable-background:new 0 0 943.9 335;" xml:space="preserve">
<style type="text/css">
	.st0{fill:#37B0E6;}
</style>
<g>
	<g>
		<g>
			<g>
				<g>
					<path class="st0" d="M73.2,143.8V94.3c0-7.5,6-13.5,13.5-13.5h4.6c7.5,0,13.5,6,13.5,13.5v48.9c0,16.2,8.2,23.9,20.7,23.9
						s20.7-7.4,20.7-23.1V39.9c0-7.5,6-13.5,13.5-13.5h4.6c7.5,0,13.5,6,13.5,13.5V143c0,36.2-20.7,52.1-52.6,52.1
						S73.2,178.9,73.2,143.8z"/>
				</g>
				<g>
					<path class="st0" d="M0,185.2v-49.5c0-7.5,6-13.5,13.5-13.5h4.6c7.5,0,13.5,6,13.5,13.5v48.9c0,16.2,8.2,23.9,20.7,23.9
						S73,201.1,73,185.4V81.3c0-7.5,6-13.5,13.5-13.5h4.6c7.5,0,13.5,6,13.5,13.5v103.1c0,36.2-20.7,52.1-52.6,52.1S0,220.3,0,185.2
						z"/>
				</g>
				<g>
					<path class="st0" d="M161.6,0c6.1,6.8,12.1,13.3,18.1,19.9c4.1,4.5,8.1,9,12.2,13.5c2.1,2.3,2.3,4.7,0.7,6.7
						c-1.6,2.1-3.9,2.4-6.7,0.9c-7.4-4-14.7-7.9-22-12.1c-1.8-1-3.1-0.9-4.8,0.1c-7.1,4-14.2,7.8-21.3,11.7c-3.1,1.7-6.1,1-7.1-1.9
						c-0.5-1.4-0.4-3.7,0.4-4.7C141,22.7,151.3,11.4,161.6,0z"/>
				</g>
			</g>
		</g>
		<g>
			<path class="st0" d="M332.5,235c-5.9,0-11.6-1.4-17-4.2c-4.9-2.5-9.4-6.1-13.4-10.6c-0.7-0.7-1.3-1.4-1.9-2.2
				c-0.6-0.8-1.1-1.6-1.7-2.4c-1.1,1.7-2.3,3.3-3.4,4.7c-4,4.5-8.4,8.1-13.4,10.6c-5.7,2.8-11.4,4.2-17.2,4.2
				c-5.7,0-11.3-1.4-17-4.2c-4.9-2.5-9.4-6.1-13.4-10.6c-3.8-4.5-6.8-9.7-8.8-15.5c-2.1-5.8-3.1-11.9-3.1-18.2v-0.2v-48.5
				c0-2.4,0.8-4.4,2.4-6c1.6-1.6,3.6-2.4,6-2.4c2.4,0,4.4,0.8,6,2.4c1.6,1.6,2.4,3.6,2.4,6v48.5c0,4.4,0.7,8.6,2,12.5
				c1.3,4,3.3,7.4,5.8,10.4c2.4,2.8,5.1,5,8.1,6.6c3,1.6,6.1,2.3,9.3,2.3c6.6,0,12.5-3,17.6-8.9c2.5-3,4.5-6.4,5.8-10.4
				c1.3-4,2-8.1,2-12.5v-48.5c0-2.4,0.8-4.4,2.4-6c1.6-1.6,3.6-2.4,6-2.4c2.4,0,4.4,0.8,6,2.4c1.6,1.6,2.4,3.6,2.4,6v48.5
				c0,4.4,0.7,8.6,2.1,12.5c1.4,4,3.4,7.4,5.9,10.4c2.4,2.8,5.1,5,8.1,6.6c3,1.6,6.1,2.3,9.3,2.3c6.6,0,12.5-3,17.6-8.9
				c2.5-3,4.5-6.4,5.8-10.4c1.3-4,2-8.1,2-12.5v-48.5c0-2.4,0.8-4.4,2.4-6c1.6-1.6,3.6-2.4,6-2.4c2.4,0,4.4,0.8,6,2.4
				c1.6,1.6,2.4,3.6,2.4,6v48.5v0.2c0,6.4-1,12.4-3.1,18.2c-2.1,5.8-5,11-8.8,15.5c-3.8,4.5-8.3,8.1-13.6,10.6
				C344,233.6,338.4,235,332.5,235z"/>
			<path class="st0" d="M478.1,235.2c-2.4,0-4.4-0.8-6-2.4c-1.6-1.6-2.4-3.6-2.4-6v-4.9c-4.9,4.4-10.4,7.7-16.4,10
				c-6,2.3-12.3,3.4-19,3.4c-7.1,0-13.8-1.3-20.1-3.8c-6.4-2.5-12-6.2-17-11c-4.9-4.9-8.8-10.5-11.4-16.7c-2.7-6.2-4-12.8-4-19.7
				c0-6.9,1.3-13.5,4-19.7c2.7-6.2,6.5-11.8,11.4-16.7c4.9-4.9,10.6-8.7,17-11.2c6.4-2.5,13.1-3.8,20.1-3.8c7.1,0,13.8,1.3,20.1,3.8
				c6.4,2.5,12,6.3,17,11.2c4.9,4.9,8.8,10.5,11.4,16.7c2.7,6.2,4,12.8,4,19.7c0,0.7,0,1.5-0.1,2.2c-0.1,0.8-0.1,1.6-0.1,2.4v38.2
				c0,2.4-0.8,4.4-2.4,6C482.5,234.4,480.5,235.2,478.1,235.2z M434.2,149.4c-4.9,0-9.6,0.9-13.9,2.8c-4.3,1.8-8.1,4.3-11.2,7.4
				c-3.2,3.1-5.7,6.8-7.6,10.9c-1.9,4.2-2.9,8.7-2.9,13.5c0,4.7,1,9.1,2.9,13.2c1.9,4.2,4.5,7.8,7.6,10.9c3.2,3.1,6.9,5.6,11.2,7.4
				c4.3,1.8,8.9,2.8,13.9,2.8c4.5,0,8.8-0.8,12.9-2.3c4.1-1.6,7.7-3.7,10.9-6.5s5.8-6,7.8-9.8c2-3.7,3.3-7.7,3.7-12v-7.2v-0.4
				c-0.4-4.2-1.7-8.2-3.7-12c-2.1-3.7-4.7-7-7.8-9.8c-3.2-2.8-6.8-4.9-10.9-6.6C443,150.2,438.7,149.4,434.2,149.4z"/>
			<path class="st0" d="M539.8,235c-6.4,0-12.3-1.2-17.9-3.5c-5.6-2.3-10.5-5.7-14.9-10.1c-4.3-4.4-7.6-9.4-9.9-14.9
				c-2.3-5.6-3.5-11.6-3.5-17.9v-102c0-2.4,0.8-4.5,2.5-6.1c1.7-1.7,3.7-2.5,6.1-2.5c2.4,0,4.4,0.9,6,2.5c1.6,1.7,2.4,3.8,2.4,6.2
				v102.1c0,4.1,0.8,7.9,2.3,11.5c1.6,3.5,3.6,6.6,6.3,9.2c2.6,2.6,5.7,4.7,9.2,6.3c3.5,1.6,7.3,2.3,11.4,2.3c2.4,0,4.4,0.8,6,2.4
				c1.6,1.6,2.4,3.6,2.4,6c0,2.4-0.8,4.4-2.4,6.1C544.2,234.2,542.2,235,539.8,235z"/>
			<path class="st0" d="M601.4,235c-6.4,0-12.3-1.2-17.9-3.5c-5.6-2.3-10.5-5.7-14.9-10.1c-4.3-4.4-7.6-9.4-9.9-14.9
				c-2.3-5.6-3.5-11.6-3.5-17.9v-102c0-2.4,0.8-4.5,2.5-6.1s3.7-2.5,6.1-2.5c2.4,0,4.4,0.9,6,2.5c1.6,1.7,2.4,3.8,2.4,6.2v102.1
				c0,4.1,0.8,7.9,2.3,11.5c1.6,3.5,3.6,6.6,6.3,9.2c2.6,2.6,5.7,4.7,9.2,6.3c3.5,1.6,7.3,2.3,11.4,2.3c2.4,0,4.4,0.8,6,2.4
				c1.6,1.6,2.4,3.6,2.4,6c0,2.4-0.8,4.4-2.4,6.1C605.9,234.2,603.8,235,601.4,235z"/>
			<path class="st0" d="M668.6,233.5c-6.8,0-13.2-1.2-19.3-3.7c-6.1-2.5-11.5-6-16.3-10.7c-4.9-4.8-8.8-10.3-11.6-16.4
				s-4.2-12.7-4.3-19.6c-0.1-6.9,1-13.5,3.5-19.8c2.5-6.3,6.1-11.9,10.9-16.8c4.7-4.9,10.1-8.7,16.3-11.4c6.2-2.7,12.8-4.2,19.7-4.4
				c6.8-0.1,13.4,1,19.7,3.5c6.4,2.5,12,6.1,17,10.9l0.2,0.2c1.6,1.8,2.3,3.8,2.3,5.9c0,2.1-0.8,4.1-2.3,5.9L651.9,212
				c3.2,1.8,6.7,3.1,10.4,3.8c3.7,0.7,7.3,0.8,11,0.2c3.7-0.6,7.2-1.7,10.6-3.4c3.4-1.7,6.5-3.9,9.3-6.8c1.7-1.7,3.7-2.6,6.1-2.6
				c2.4-0.1,4.5,0.7,6.1,2.2c1.7,1.7,2.5,3.7,2.5,6.1c0,2.4-0.8,4.4-2.3,6.1c-4.8,4.9-10.3,8.7-16.4,11.4
				c-6.1,2.7-12.7,4.1-19.6,4.2c-0.3,0-0.5,0-0.6,0.1C668.9,233.5,668.8,233.5,668.6,233.5z M668.6,147.7c-4.5,0-8.9,0.9-13.2,2.6
				c-4.3,1.8-8.2,4.4-11.6,7.9c-2.8,2.8-5,6-6.6,9.5c-1.6,3.5-2.5,7.1-2.9,10.8c-0.4,3.7-0.1,7.3,0.7,11c0.8,3.7,2.3,7.1,4.2,10.4
				l46-47.9C680,149.2,674.4,147.7,668.6,147.7z"/>
			<path class="st0" d="M761.3,235c-6.2,0-12.1-1.2-17.7-3.5c-5.6-2.3-10.6-5.7-14.9-10.1c-4.4-4.4-7.7-9.3-10.1-14.8
				c-2.3-5.5-3.5-11.4-3.5-17.6v-102c0-2.4,0.8-4.4,2.4-6c1.6-1.6,3.6-2.4,6-2.4c2.4,0,4.4,0.8,6,2.4c1.6,1.6,2.4,3.6,2.4,6v54.3
				h29.3c2.4,0,4.4,0.8,6,2.4c1.6,1.6,2.4,3.6,2.4,6c0,2.4-0.8,4.4-2.4,6c-1.6,1.6-3.6,2.4-6,2.4H732V189c0,4,0.8,7.7,2.3,11.2
				c1.6,3.5,3.6,6.6,6.3,9.2c2.6,2.6,5.7,4.7,9.2,6.3c3.5,1.6,7.3,2.3,11.4,2.3c2.4,0,4.4,0.8,6,2.4c1.6,1.6,2.4,3.6,2.4,6
				c0,2.4-0.8,4.4-2.4,6C765.7,234.2,763.7,235,761.3,235z"/>
			<path class="st0" d="M785,233.8c-2.4,0-4.4-0.8-6-2.4c-1.6-1.6-2.4-3.6-2.4-6V123.1V122c0-6.1,1.1-11.8,3.4-17.1
				c2.3-5.3,5.4-9.9,9.3-13.9c4-4,8.6-7.1,13.9-9.3c5.3-2.3,11-3.4,17.1-3.4c2.4,0,4.4,0.8,6,2.4c1.6,1.6,2.4,3.6,2.4,6
				c0,2.4-0.8,4.4-2.4,6c-1.6,1.6-3.6,2.4-6,2.4c-3.5,0-6.9,0.7-10.1,2c-3.2,1.3-6,3.1-8.4,5.4c-2.4,2.3-4.3,4.9-5.8,8.1
				c-1.5,3.1-2.3,6.4-2.4,10v0.6v11.2h26.7c2.4,0,4.4,0.8,6,2.4c1.6,1.6,2.4,3.6,2.4,6c0,2.4-0.8,4.4-2.4,6c-1.6,1.6-3.6,2.4-6,2.4
				h-26.7v75.7c0,2.4-0.8,4.4-2.4,6C789.4,232.9,787.4,233.8,785,233.8z"/>
			<path class="st0" d="M922.8,233.3c-2.4,0-4.4-0.8-6-2.4c-1.6-1.6-2.4-3.6-2.4-6v-2.8c-4.4,3.7-9.2,6.5-14.4,8.4
				c-5.2,1.9-10.7,2.9-16.5,2.9c-6.4,0-12.5-1.2-18.3-3.6c-5.9-2.4-11.1-5.9-15.6-10.4c-4.5-4.5-8-9.7-10.4-15.6
				c-2.4-5.9-3.6-12-3.6-18.3v-47.5c0-2.4,0.8-4.4,2.4-6c1.6-1.6,3.6-2.4,6-2.4c2.4,0,4.4,0.8,6,2.4c1.6,1.6,2.4,3.6,2.4,6v47.5
				c0,4.2,0.8,8.3,2.4,12.1c1.6,3.8,3.8,7.1,6.7,9.9c2.8,2.8,6.1,4.9,9.9,6.6c3.7,1.6,7.7,2.4,12,2.4c4.2,0,8.3-0.8,12.1-2.4
				c3.8-1.6,7.1-3.8,9.9-6.6c2.8-2.8,4.9-6,6.6-9.9c1.6-3.8,2.4-7.8,2.4-12.1v-47.3c0-2.4,0.8-4.4,2.4-6c1.6-1.6,3.6-2.4,6-2.4
				c2.4,0,4.4,0.8,6,2.4c1.6,1.6,2.4,3.6,2.4,6v86.7c0,2.4-0.8,4.4-2.4,6C927.2,232.5,925.2,233.3,922.8,233.3z M883.4,318.5
				c-6.4,0-12.5-1.2-18.3-3.6c-5.9-2.4-11.1-5.9-15.6-10.4c-4.5-4.5-8-9.7-10.4-15.5c-2.4-5.8-3.6-11.9-3.6-18.4
				c0-2.4,0.8-4.4,2.4-6c1.6-1.6,3.6-2.4,6-2.4c2.4,0,4.4,0.8,6,2.4c1.6,1.6,2.4,3.6,2.4,6c0,4.2,0.8,8.3,2.4,12.1
				c1.6,3.8,3.8,7.1,6.7,9.9c2.8,2.8,6.1,4.9,9.9,6.6c3.7,1.6,7.7,2.4,12,2.4c4.2,0,8.3-0.8,12.1-2.4c3.8-1.6,7.1-3.8,9.9-6.6
				s4.9-6,6.6-9.9c1.6-3.8,2.4-7.8,2.4-12.1c0-2.4,0.8-4.4,2.4-6c1.6-1.6,3.6-2.4,6-2.4c2.4,0,4.4,0.8,6,2.4c1.6,1.6,2.4,3.6,2.4,6
				c0,13.3-4.7,24.6-14,33.9c-4.5,4.5-9.7,8-15.6,10.4C895.8,317.3,889.7,318.5,883.4,318.5z"/>
		</g>
	</g>
</g>
</svg>
